<svg width="236" height="47" viewBox="0 0 236 47" fill="none" xmlns="http://www.w3.org/2000/svg">
<path d="M27.0781 6.875C27.0469 7.0625 26.9531 7.23437 26.7969 7.39062C26.6719 7.54688 26.5 7.625 26.2812 7.625C26 7.625 25.7188 7.60937 25.4375 7.57812C25.1562 7.54688 24.8594 7.53125 24.5469 7.53125C22.2344 7.53125 19.9688 7.96875 17.75 8.84375C15.5312 9.71875 13.4844 10.9062 11.6094 12.4062C9.76562 13.9062 8.15625 15.6562 6.78125 17.6562C5.40625 19.6562 4.39062 21.7812 3.73438 24.0312C3.51562 24.75 3.32812 25.4844 3.17188 26.2344C3.04688 26.9844 2.9375 27.7188 2.84375 28.4375C2.71875 29.2812 2.64062 30.1406 2.60938 31.0156C2.57812 31.8906 2.625 32.75 2.75 33.5938C2.875 34.4375 3.0625 35.25 3.3125 36.0312C3.59375 36.8125 3.98438 37.5312 4.48438 38.1875C4.67188 38.4375 4.875 38.6875 5.09375 38.9375C5.3125 39.1562 5.54688 39.3438 5.79688 39.5C6.26562 39.7812 6.85938 39.9844 7.57812 40.1094C8.29688 40.2344 8.95312 40.2969 9.54688 40.2969C11.2344 40.2969 12.9219 39.9375 14.6094 39.2188C16.2969 38.5 17.7656 37.5 19.0156 36.2188C19.3594 35.875 19.6562 35.5469 19.9062 35.2344C20.1562 34.8906 20.4219 34.5312 20.7031 34.1562C20.8594 33.9375 21.0625 33.8281 21.3125 33.8281C21.5 33.8281 21.6562 33.8906 21.7812 34.0156C21.9375 34.1406 22 34.3125 21.9688 34.5312C21.9688 34.5625 21.9375 34.6406 21.875 34.7656C21.2188 35.8906 20.4062 36.9219 19.4375 37.8594C18.4688 38.7656 17.4219 39.5469 16.2969 40.2031C15.1719 40.8281 13.9844 41.3125 12.7344 41.6562C11.5156 42.0312 10.2812 42.2188 9.03125 42.2188C8.6875 42.2188 8.3125 42.2031 7.90625 42.1719C7.5 42.1406 7.09375 42.0781 6.6875 41.9844C6.28125 41.9219 5.89062 41.8281 5.51562 41.7031C5.14062 41.6094 4.8125 41.4844 4.53125 41.3281C4.28125 41.1719 4.03125 40.9688 3.78125 40.7188C3.53125 40.4688 3.29688 40.2344 3.07812 40.0156C1.67188 38.4531 0.828125 36.6406 0.546875 34.5781C0.265625 32.4844 0.265625 30.3594 0.546875 28.2031C0.640625 27.4531 0.765625 26.7031 0.921875 25.9531C1.07812 25.2031 1.25 24.4531 1.4375 23.7031C2.03125 21.3906 3.01562 19.1562 4.39062 17C5.76562 14.8125 7.40625 12.8906 9.3125 11.2344C11.25 9.54688 13.3594 8.20313 15.6406 7.20312C17.9531 6.17188 20.3125 5.65625 22.7188 5.65625C23.2812 5.65625 23.9531 5.70312 24.7344 5.79688C25.5156 5.85938 26.1562 5.98438 26.6562 6.17188C26.9688 6.29687 27.1094 6.53125 27.0781 6.875ZM40.1562 37.9531C40.1562 38.1094 40.0938 38.25 39.9688 38.375C39.4688 38.8438 38.8594 39.375 38.1406 39.9688C37.4219 40.5625 36.6562 41.1094 35.8438 41.6094C35.0625 42.1094 34.25 42.5312 33.4062 42.875C32.5938 43.2188 31.8438 43.3906 31.1562 43.3906C30.1562 43.3906 29.375 43.1406 28.8125 42.6406C28.25 42.1406 27.8125 41.5312 27.5 40.8125C27.2188 40.0625 27.0312 39.2656 26.9375 38.4219C26.875 37.5469 26.8438 36.7344 26.8438 35.9844C26.8438 34.2344 27.0156 32.5156 27.3594 30.8281C27.7031 29.1406 28.0781 27.4531 28.4844 25.7656C29.2656 22.4844 30.2031 19.2812 31.2969 16.1562C32.4219 13.0312 33.8281 10 35.5156 7.0625C35.8281 6.5 36.1406 5.9375 36.4531 5.375C36.7969 4.8125 37.1562 4.28125 37.5312 3.78125C37.6562 3.59375 37.8281 3.5 38.0469 3.5C38.2344 3.5 38.4062 3.5625 38.5625 3.6875C38.75 3.8125 38.8438 3.98438 38.8438 4.20312C38.8438 4.29688 38.8281 4.375 38.7969 4.4375C37.3906 8.0625 35.9375 11.6719 34.4375 15.2656C32.9375 18.8594 31.7188 22.5469 30.7812 26.3281C30.3438 28.0156 29.9375 29.7344 29.5625 31.4844C29.2188 33.2031 29.0469 34.9531 29.0469 36.7344C29.0469 37.2031 29.0469 37.7188 29.0469 38.2812C29.0781 38.8125 29.1562 39.3125 29.2812 39.7812C29.4375 40.25 29.6719 40.6562 29.9844 41C30.3281 41.3125 30.8125 41.4688 31.4375 41.4688C32.125 41.4688 32.8906 41.25 33.7344 40.8125C34.6094 40.375 35.4375 39.8906 36.2188 39.3594C37.0312 38.7969 37.7344 38.2969 38.3281 37.8594C38.9219 37.4219 39.2812 37.2031 39.4062 37.2031C39.5938 37.2031 39.7656 37.2812 39.9219 37.4375C40.0781 37.5938 40.1562 37.7656 40.1562 37.9531ZM51.4062 6.07812C51.4062 6.26562 51.3281 6.48437 51.1719 6.73438L51.125 6.875C51.1875 7.0625 51.2188 7.20312 51.2188 7.29688C51 7.45313 50.8438 7.625 50.75 7.8125C50.6562 7.96875 50.4375 8.04688 50.0938 8.04688C49.8125 8.04688 49.5312 7.9375 49.25 7.71875C48.9688 7.46875 48.8281 7.17188 48.8281 6.82812C48.8281 6.26562 48.875 5.8125 48.9688 5.46875C49.0938 5.09375 49.5156 4.90625 50.2344 4.90625C50.5156 4.90625 50.7812 5.03125 51.0312 5.28125C51.2812 5.53125 51.4062 5.79688 51.4062 6.07812ZM51.0781 35.9844C51.0781 36.1406 51.0312 36.2656 50.9375 36.3594C50.3438 37.0781 49.7656 37.7969 49.2031 38.5156C48.6719 39.2031 48.0938 39.8438 47.4688 40.4375C46.875 41.0312 46.2031 41.5312 45.4531 41.9375C44.7031 42.375 43.8438 42.6875 42.875 42.875C42.0312 42.5 41.4531 42 41.1406 41.375C40.8281 40.7812 40.6719 40.0469 40.6719 39.1719V37.4844C40.6719 36.6719 40.75 35.8281 40.9062 34.9531C41.0938 34.0781 41.2812 33.2344 41.4688 32.4219C41.75 31.2031 42.0625 29.8906 42.4062 28.4844C42.7812 27.0781 43.2031 25.6875 43.6719 24.3125C44.1719 22.9062 44.7344 21.5625 45.3594 20.2812C45.9844 18.9688 46.6875 17.8281 47.4688 16.8594C47.625 16.7031 47.7812 16.625 47.9375 16.625C48.125 16.625 48.3125 16.7031 48.5 16.8594C48.6875 16.9844 48.7812 17.1562 48.7812 17.375V17.4688C48.25 19.125 47.6406 20.875 46.9531 22.7188C46.2969 24.5312 45.6562 26.3906 45.0312 28.2969C44.4375 30.1719 43.9219 32.0469 43.4844 33.9219C43.0781 35.7969 42.875 37.6094 42.875 39.3594C42.875 39.5469 42.875 39.8125 42.875 40.1562C42.9062 40.5 43.0156 40.7188 43.2031 40.8125C43.8906 40.6875 44.6094 40.3281 45.3594 39.7344C46.1406 39.1406 46.8594 38.5156 47.5156 37.8594C48.2031 37.2031 48.7969 36.6094 49.2969 36.0781C49.7969 35.5469 50.1406 35.2812 50.3281 35.2812C50.4844 35.2812 50.6406 35.3594 50.7969 35.5156C50.9844 35.6719 51.0781 35.8281 51.0781 35.9844ZM66.1719 18.9219C66.1719 19.2344 66.0469 19.4375 65.7969 19.5312C65.2656 19.7812 64.7344 20.0156 64.2031 20.2344C63.7031 20.4531 63.2031 20.7344 62.7031 21.0781C60.6094 22.3594 58.8125 23.9844 57.3125 25.9531C55.8125 27.9219 54.75 30.0938 54.125 32.4688C53.8438 33.6875 53.7031 34.9219 53.7031 36.1719C53.7031 36.6094 53.7344 37.0938 53.7969 37.625C53.8594 38.125 53.9688 38.625 54.125 39.125C54.3125 39.625 54.5469 40.0781 54.8281 40.4844C55.1406 40.8906 55.5312 41.1875 56 41.375C56.0312 41.4062 56.0781 41.4219 56.1406 41.4219C56.2344 41.4219 56.2969 41.4219 56.3281 41.4219C57.1094 41.4219 57.8281 41.2188 58.4844 40.8125C59.1406 40.375 59.7344 39.8906 60.2656 39.3594C61.1094 38.5156 61.9062 37.5469 62.6562 36.4531C62.8125 36.2344 62.9688 36.0156 63.125 35.7969C63.2812 35.5781 63.4375 35.375 63.5938 35.1875C63.6875 35.0312 63.8281 34.9531 64.0156 34.9531C64.2031 34.9531 64.375 35.0312 64.5312 35.1875C64.7188 35.3125 64.8125 35.4688 64.8125 35.6562C64.8125 35.7188 64.7344 35.875 64.5781 36.125C64.4531 36.375 64.2969 36.6562 64.1094 36.9688C63.9219 37.25 63.7344 37.5312 63.5469 37.8125C63.3906 38.0625 63.2812 38.2344 63.2188 38.3281C62.7812 38.9844 62.3125 39.625 61.8125 40.25C61.3438 40.875 60.8125 41.4219 60.2188 41.8906C59.6562 42.3594 59.0156 42.7344 58.2969 43.0156C57.5781 43.2969 56.7969 43.4375 55.9531 43.4375C55.7656 43.4375 55.625 43.4219 55.5312 43.3906C54.9375 43.2969 54.4062 43.0625 53.9375 42.6875C53.5 42.3438 53.1094 41.9062 52.7656 41.375C52.4531 40.875 52.2031 40.3438 52.0156 39.7812C51.8281 39.1875 51.6875 38.625 51.5938 38.0938C51.5312 37.7188 51.4844 37.3438 51.4531 36.9688C51.4219 36.5938 51.4062 36.2031 51.4062 35.7969C51.4062 34.4531 51.5625 33.1719 51.875 31.9531C52.1875 30.5781 52.6406 29.2188 53.2344 27.875C53.8594 26.5312 54.6094 25.2812 55.4844 24.125C56.3594 22.9688 57.3594 21.9531 58.4844 21.0781C59.6094 20.1719 60.8594 19.4531 62.2344 18.9219C62.7031 18.7344 63.2344 18.5625 63.8281 18.4062C64.4219 18.2188 64.9844 18.125 65.5156 18.125C65.6719 18.125 65.8125 18.2188 65.9375 18.4062C66.0938 18.5938 66.1719 18.7656 66.1719 18.9219ZM86.5625 42.5938C86.5625 42.8438 86.4531 43.0156 86.2344 43.1094C85.7656 43.2656 85.25 43.3906 84.6875 43.4844C84.1562 43.6094 83.6406 43.6719 83.1406 43.6719C81.9219 43.6719 80.9219 43.3906 80.1406 42.8281C79.3906 42.2656 78.7656 41.5469 78.2656 40.6719C77.7656 39.7969 77.3438 38.8125 77 37.7188C76.6875 36.625 76.3438 35.5312 75.9688 34.4375C75.625 33.3438 75.2031 32.3125 74.7031 31.3438C74.2031 30.375 73.5469 29.5938 72.7344 29L72.3594 29.2344C71.7344 31.3281 71.1094 33.4062 70.4844 35.4688C69.8594 37.5 69.1562 39.5312 68.375 41.5625C68.125 42.1875 67.8438 42.8906 67.5312 43.6719C67.25 44.4531 66.9375 45.1406 66.5938 45.7344C66.5 45.9531 66.3125 46.0625 66.0312 46.0625C65.875 46.0625 65.7031 45.9844 65.5156 45.8281C65.3281 45.7031 65.2344 45.5469 65.2344 45.3594C65.2344 45.3281 65.25 45.2188 65.2812 45.0312C65.3438 44.8438 65.3906 44.625 65.4219 44.375C65.4844 44.1562 65.5312 43.9375 65.5625 43.7188C65.625 43.5312 65.6562 43.4062 65.6562 43.3438C66.375 40.1875 67.2344 37.0938 68.2344 34.0625C69.2344 31.0312 70.2188 27.9688 71.1875 24.875C72.875 19.4062 74.6094 13.9688 76.3906 8.5625C76.7031 7.65625 77 6.75 77.2812 5.84375C77.5938 4.9375 77.9062 4.03125 78.2188 3.125C78.3438 2.75 78.4531 2.35937 78.5469 1.95312C78.6719 1.54688 78.8125 1.15625 78.9688 0.78125C79.125 0.53125 79.3125 0.40625 79.5312 0.40625C79.6875 0.40625 79.8594 0.484375 80.0469 0.640625C80.2344 0.765625 80.3281 0.921875 80.3281 1.10938V1.15625C79.2344 5.5 78.0625 9.79688 76.8125 14.0469C75.5938 18.2656 74.3438 22.5156 73.0625 26.7969C73.9375 26.0781 74.8125 25.3594 75.6875 24.6406C76.5625 23.9219 77.4219 23.1875 78.2656 22.4375C79.1719 21.625 80.0156 20.7344 80.7969 19.7656C81.6094 18.7656 82.4688 17.9062 83.375 17.1875C83.4375 17.1562 83.5 17.125 83.5625 17.0938C83.625 17.0625 83.6875 17.0469 83.75 17.0469C83.8438 17.0469 84.0156 17.1562 84.2656 17.375C84.5156 17.5625 84.6406 17.7031 84.6406 17.7969C84.6406 17.8594 84.5938 18.0469 84.5 18.3594C84.4062 18.6406 84.3438 18.8281 84.3125 18.9219C83.875 20.0156 83.2344 20.9844 82.3906 21.8281C81.5781 22.6719 80.7188 23.4688 79.8125 24.2188C79 24.9062 78.1406 25.5625 77.2344 26.1875C76.3281 26.7812 75.4219 27.3594 74.5156 27.9219C75.2969 28.2969 75.9375 28.8125 76.4375 29.4688C76.9375 30.125 77.3438 30.8594 77.6562 31.6719C78 32.4531 78.2812 33.2969 78.5 34.2031C78.7188 35.0781 78.9375 35.9375 79.1562 36.7812C79.375 37.625 79.625 38.4062 79.9062 39.125C80.2188 39.8438 80.625 40.4531 81.125 40.9531C81.5 41.3281 81.9375 41.5781 82.4375 41.7031C82.9375 41.8594 83.4531 41.9375 83.9844 41.9375C84.3281 41.9375 84.6562 41.9062 84.9688 41.8438C85.2812 41.7812 85.5938 41.75 85.9062 41.75C86.0312 41.75 86.1719 41.8594 86.3281 42.0781C86.4844 42.2969 86.5625 42.4688 86.5625 42.5938ZM114.594 10.2969C114.594 10.3594 114.578 10.4063 114.547 10.4375C114.547 10.4687 114.547 10.5 114.547 10.5312C113.578 12.6875 112.578 14.8281 111.547 16.9531C110.516 19.0469 109.594 21.2188 108.781 23.4688C109.125 23.4688 109.453 23.4688 109.766 23.4688C110.078 23.4375 110.406 23.4219 110.75 23.4219C110.906 23.4219 111.078 23.4219 111.266 23.4219C111.484 23.3906 111.672 23.4062 111.828 23.4688C112.016 23.5 112.172 23.5781 112.297 23.7031C112.422 23.7969 112.484 23.9688 112.484 24.2188C112.484 24.5312 112.359 24.7344 112.109 24.8281C111.891 24.8906 111.594 24.9688 111.219 25.0625C110.875 25.125 110.5 25.1875 110.094 25.25C109.719 25.3125 109.344 25.375 108.969 25.4375C108.625 25.4688 108.328 25.5 108.078 25.5312C107.797 26.3438 107.531 27.25 107.281 28.25C107.031 29.2188 106.812 30.2344 106.625 31.2969C106.438 32.3281 106.281 33.3594 106.156 34.3906C106.031 35.3906 105.969 36.3125 105.969 37.1562C105.969 37.375 105.969 37.7188 105.969 38.1875C106 38.625 106.047 39.0625 106.109 39.5C106.203 39.9375 106.328 40.3281 106.484 40.6719C106.672 41.0156 106.922 41.1875 107.234 41.1875C107.672 41.1875 108.172 40.9688 108.734 40.5312C109.297 40.0938 109.844 39.5938 110.375 39.0312C110.938 38.4375 111.453 37.8594 111.922 37.2969C112.422 36.7031 112.828 36.25 113.141 35.9375C113.266 35.8125 113.406 35.75 113.562 35.75C113.75 35.75 113.922 35.8281 114.078 35.9844C114.266 36.1406 114.359 36.3125 114.359 36.5C114.359 36.5938 114.312 36.7031 114.219 36.8281C113.875 37.3281 113.422 37.9531 112.859 38.7031C112.328 39.4219 111.734 40.125 111.078 40.8125C110.453 41.4688 109.781 42.0312 109.062 42.5C108.375 42.9688 107.703 43.2031 107.047 43.2031C106.328 43.2031 105.75 42.9531 105.312 42.4531C104.875 41.9531 104.531 41.3594 104.281 40.6719C104.062 39.9531 103.906 39.2188 103.812 38.4688C103.75 37.6875 103.719 37.0312 103.719 36.5C103.719 35.75 103.766 34.9062 103.859 33.9688C103.984 33.0312 104.125 32.0781 104.281 31.1094C104.438 30.1406 104.625 29.2031 104.844 28.2969C105.062 27.3594 105.266 26.5156 105.453 25.7656C105.203 25.7656 104.953 25.7812 104.703 25.8125C104.484 25.8125 104.25 25.8125 104 25.8125C103.344 25.8125 102.672 25.7969 101.984 25.7656C101.297 25.7344 100.625 25.6719 99.9688 25.5781C99.3125 25.4531 98.6719 25.2656 98.0469 25.0156C97.4219 24.7344 96.8594 24.3594 96.3594 23.8906C96.2344 23.7969 96.1719 23.6562 96.1719 23.4688C96.1719 23.4062 96.2656 23.25 96.4531 23C96.6406 22.7188 96.7656 22.5781 96.8281 22.5781C97.9844 22.5781 99.125 22.7031 100.25 22.9531C101.375 23.2031 102.516 23.3594 103.672 23.4219C104.047 23.4531 104.422 23.4688 104.797 23.4688C105.203 23.4688 105.609 23.4688 106.016 23.4688H106.156C106.5 22.4062 106.922 21.25 107.422 20C107.922 18.75 108.484 17.5156 109.109 16.2969C109.734 15.0781 110.391 13.9062 111.078 12.7812C111.797 11.625 112.531 10.625 113.281 9.78125C113.469 9.65625 113.625 9.59375 113.75 9.59375C113.938 9.59375 114.125 9.67187 114.312 9.82812C114.5 9.95312 114.594 10.1094 114.594 10.2969ZM134.469 24.125C134.469 25.3125 134.328 26.6094 134.047 28.0156C133.797 29.4219 133.406 30.8281 132.875 32.2344C132.344 33.6406 131.688 35.0156 130.906 36.3594C130.156 37.6719 129.281 38.8438 128.281 39.875C127.312 40.9062 126.219 41.7188 125 42.3125C123.812 42.9375 122.531 43.25 121.156 43.25C120.125 43.25 119.234 42.9688 118.484 42.4062C117.734 41.875 117.094 41.1875 116.562 40.3438C116.062 39.5 115.688 38.5938 115.438 37.625C115.188 36.625 115.062 35.6875 115.062 34.8125C115.062 33.7812 115.203 32.7656 115.484 31.7656C116.359 28.8906 117.766 26.3281 119.703 24.0781C121.641 21.8281 124 20.1406 126.781 19.0156C126.844 18.9844 126.922 18.9688 127.016 18.9688C127.234 18.9688 127.391 19.0469 127.484 19.2031C127.609 19.3594 127.672 19.5312 127.672 19.7188C127.672 19.9375 127.547 20.125 127.297 20.2812C126.859 20.5312 126.422 20.7812 125.984 21.0312C125.547 21.25 125.109 21.5312 124.672 21.875C122.953 23.125 121.484 24.6719 120.266 26.5156C119.047 28.3594 118.125 30.2969 117.5 32.3281C117.281 32.9844 117.172 33.7188 117.172 34.5312C117.172 35.1875 117.266 35.8906 117.453 36.6406C117.641 37.3906 117.922 38.0938 118.297 38.75C118.672 39.375 119.141 39.9062 119.703 40.3438C120.297 40.75 120.984 40.9531 121.766 40.9531C122.266 40.9531 122.734 40.8594 123.172 40.6719C123.641 40.4844 124.078 40.25 124.484 39.9688C125.672 39.125 126.734 38.0312 127.672 36.6875C128.609 35.3438 129.406 33.9062 130.062 32.375C130.719 30.8125 131.219 29.2344 131.562 27.6406C131.906 26.0156 132.078 24.4844 132.078 23.0469V22.4844C132.016 21.6719 131.734 20.9844 131.234 20.4219C130.766 19.8594 130.172 19.4062 129.453 19.0625C129.234 18.9688 129.016 18.8906 128.797 18.8281C128.609 18.7656 128.422 18.6875 128.234 18.5938C127.922 18.4688 127.766 18.25 127.766 17.9375C127.766 17.7188 127.828 17.5312 127.953 17.375C128.078 17.2188 128.25 17.1562 128.469 17.1875H128.516C129.203 17.25 129.875 17.4062 130.531 17.6562C131.219 17.9062 131.828 18.25 132.359 18.6875C132.891 19.125 133.328 19.6406 133.672 20.2344C134.047 20.8281 134.281 21.5 134.375 22.25C134.438 22.5625 134.469 22.875 134.469 23.1875C134.469 23.4688 134.469 23.7812 134.469 24.125ZM170 18.5C170 18.9062 169.812 19.1406 169.438 19.2031C169.281 19.2656 169.125 19.2969 168.969 19.2969C168.844 19.2656 168.703 19.2656 168.547 19.2969C168.172 19.3281 167.797 19.375 167.422 19.4375C167.078 19.5 166.719 19.5625 166.344 19.625C164.656 19.9688 163 20.5312 161.375 21.3125C159.781 22.0625 158.391 23.0625 157.203 24.3125C156.859 24.6875 156.578 25.0938 156.359 25.5312C156.172 25.9375 156.078 26.4062 156.078 26.9375C156.078 27.2812 156.266 27.5469 156.641 27.7344C157.016 27.9219 157.469 28.1094 158 28.2969C158.562 28.4844 159.156 28.6875 159.781 28.9062C160.438 29.125 161.031 29.4375 161.562 29.8438C162.125 30.25 162.594 30.7812 162.969 31.4375C163.344 32.0625 163.531 32.875 163.531 33.875C163.531 35.0312 163.312 36.1406 162.875 37.2031C162.438 38.2656 161.828 39.2188 161.047 40.0625C160.266 40.875 159.359 41.5156 158.328 41.9844C157.297 42.4844 156.203 42.7344 155.047 42.7344C153.953 42.7344 152.984 42.5 152.141 42.0312C151.328 41.5625 150.641 40.9531 150.078 40.2031C149.516 39.4531 149.094 38.6094 148.812 37.6719C148.531 36.7031 148.391 35.7188 148.391 34.7188C148.391 34.5312 148.391 34.2969 148.391 34.0156C148.422 33.7031 148.453 33.4062 148.484 33.125C148.547 32.8438 148.641 32.5938 148.766 32.375C148.891 32.1562 149.078 32.0469 149.328 32.0469C149.484 32.0469 149.641 32.1094 149.797 32.2344C149.984 32.3594 150.078 32.5156 150.078 32.7031C150.078 33.4219 150.156 34.2188 150.312 35.0938C150.5 35.9688 150.781 36.7812 151.156 37.5312C151.531 38.2812 152.031 38.9219 152.656 39.4531C153.281 39.9531 154.047 40.2031 154.953 40.2031C155.766 40.2031 156.547 40.0312 157.297 39.6875C158.047 39.3125 158.703 38.8281 159.266 38.2344C159.859 37.6406 160.312 36.9688 160.625 36.2188C160.969 35.4375 161.141 34.6406 161.141 33.8281V33.3594C161.141 32.8281 160.953 32.3906 160.578 32.0469C160.234 31.7031 159.797 31.4219 159.266 31.2031C158.734 30.9531 158.156 30.7188 157.531 30.5C156.906 30.2812 156.328 30.0312 155.797 29.75C155.266 29.4375 154.812 29.0625 154.438 28.625C154.094 28.1875 153.922 27.6094 153.922 26.8906C153.922 26.1406 154.078 25.4219 154.391 24.7344C154.734 24.0469 155.172 23.4375 155.703 22.9062C157.547 21.125 159.656 19.8438 162.031 19.0625C164.438 18.25 166.906 17.8438 169.438 17.8438C169.625 17.8438 169.766 17.9219 169.859 18.0781C169.953 18.2031 170 18.3438 170 18.5ZM182.188 10.2969C182.188 10.3594 182.172 10.4063 182.141 10.4375C182.141 10.4687 182.141 10.5 182.141 10.5312C181.172 12.6875 180.172 14.8281 179.141 16.9531C178.109 19.0469 177.188 21.2188 176.375 23.4688C176.719 23.4688 177.047 23.4688 177.359 23.4688C177.672 23.4375 178 23.4219 178.344 23.4219C178.5 23.4219 178.672 23.4219 178.859 23.4219C179.078 23.3906 179.266 23.4062 179.422 23.4688C179.609 23.5 179.766 23.5781 179.891 23.7031C180.016 23.7969 180.078 23.9688 180.078 24.2188C180.078 24.5312 179.953 24.7344 179.703 24.8281C179.484 24.8906 179.188 24.9688 178.812 25.0625C178.469 25.125 178.094 25.1875 177.688 25.25C177.312 25.3125 176.938 25.375 176.562 25.4375C176.219 25.4688 175.922 25.5 175.672 25.5312C175.391 26.3438 175.125 27.25 174.875 28.25C174.625 29.2188 174.406 30.2344 174.219 31.2969C174.031 32.3281 173.875 33.3594 173.75 34.3906C173.625 35.3906 173.562 36.3125 173.562 37.1562C173.562 37.375 173.562 37.7188 173.562 38.1875C173.594 38.625 173.641 39.0625 173.703 39.5C173.797 39.9375 173.922 40.3281 174.078 40.6719C174.266 41.0156 174.516 41.1875 174.828 41.1875C175.266 41.1875 175.766 40.9688 176.328 40.5312C176.891 40.0938 177.438 39.5938 177.969 39.0312C178.531 38.4375 179.047 37.8594 179.516 37.2969C180.016 36.7031 180.422 36.25 180.734 35.9375C180.859 35.8125 181 35.75 181.156 35.75C181.344 35.75 181.516 35.8281 181.672 35.9844C181.859 36.1406 181.953 36.3125 181.953 36.5C181.953 36.5938 181.906 36.7031 181.812 36.8281C181.469 37.3281 181.016 37.9531 180.453 38.7031C179.922 39.4219 179.328 40.125 178.672 40.8125C178.047 41.4688 177.375 42.0312 176.656 42.5C175.969 42.9688 175.297 43.2031 174.641 43.2031C173.922 43.2031 173.344 42.9531 172.906 42.4531C172.469 41.9531 172.125 41.3594 171.875 40.6719C171.656 39.9531 171.5 39.2188 171.406 38.4688C171.344 37.6875 171.312 37.0312 171.312 36.5C171.312 35.75 171.359 34.9062 171.453 33.9688C171.578 33.0312 171.719 32.0781 171.875 31.1094C172.031 30.1406 172.219 29.2031 172.438 28.2969C172.656 27.3594 172.859 26.5156 173.047 25.7656C172.797 25.7656 172.547 25.7812 172.297 25.8125C172.078 25.8125 171.844 25.8125 171.594 25.8125C170.938 25.8125 170.266 25.7969 169.578 25.7656C168.891 25.7344 168.219 25.6719 167.562 25.5781C166.906 25.4531 166.266 25.2656 165.641 25.0156C165.016 24.7344 164.453 24.3594 163.953 23.8906C163.828 23.7969 163.766 23.6562 163.766 23.4688C163.766 23.4062 163.859 23.25 164.047 23C164.234 22.7188 164.359 22.5781 164.422 22.5781C165.578 22.5781 166.719 22.7031 167.844 22.9531C168.969 23.2031 170.109 23.3594 171.266 23.4219C171.641 23.4531 172.016 23.4688 172.391 23.4688C172.797 23.4688 173.203 23.4688 173.609 23.4688H173.75C174.094 22.4062 174.516 21.25 175.016 20C175.516 18.75 176.078 17.5156 176.703 16.2969C177.328 15.0781 177.984 13.9062 178.672 12.7812C179.391 11.625 180.125 10.625 180.875 9.78125C181.062 9.65625 181.219 9.59375 181.344 9.59375C181.531 9.59375 181.719 9.67187 181.906 9.82812C182.094 9.95312 182.188 10.1094 182.188 10.2969ZM203.562 33.6875C202.75 35.3438 201.906 36.8281 201.031 38.1406C200.156 39.4219 199.016 40.6719 197.609 41.8906C196.922 42.5156 196.141 42.8281 195.266 42.8281C194.797 42.8281 194.344 42.6875 193.906 42.4062C193.5 42.1562 193.219 41.7969 193.062 41.3281C193 41.1719 192.953 40.9531 192.922 40.6719C192.922 40.3906 192.906 40.0938 192.875 39.7812C192.875 39.4688 192.875 39.1719 192.875 38.8906C192.906 38.5781 192.922 38.3281 192.922 38.1406C191.828 39.4531 190.531 40.5625 189.031 41.4688C187.562 42.4062 185.938 42.875 184.156 42.875C184.062 42.875 183.922 42.8438 183.734 42.7812C183.578 42.7188 183.453 42.6719 183.359 42.6406C182.641 42.2969 182.094 41.75 181.719 41C181.375 40.25 181.203 39.5 181.203 38.75C181.203 37.7188 181.328 36.7031 181.578 35.7031C181.859 34.6719 182.219 33.6875 182.656 32.75C183.125 31.7812 183.656 30.8594 184.25 29.9844C184.844 29.1094 185.469 28.2812 186.125 27.5C187.812 25.4062 189.75 23.5938 191.938 22.0625C194.125 20.5 196.5 19.25 199.062 18.3125C199.094 18.2812 199.156 18.2656 199.25 18.2656C199.469 18.2656 199.625 18.3438 199.719 18.5C199.844 18.6562 199.906 18.8281 199.906 19.0156C199.906 19.2969 199.797 19.4844 199.578 19.5781C199.047 19.8594 198.516 20.125 197.984 20.375C197.484 20.5938 196.984 20.8438 196.484 21.125C193.016 23.125 190.094 25.6875 187.719 28.8125C187.25 29.4375 186.766 30.1406 186.266 30.9219C185.766 31.7031 185.312 32.5156 184.906 33.3594C184.5 34.1719 184.156 35.0156 183.875 35.8906C183.625 36.7656 183.5 37.6094 183.5 38.4219C183.5 38.5469 183.516 38.7344 183.547 38.9844C183.578 39.2031 183.625 39.4375 183.688 39.6875C183.75 39.9062 183.844 40.1094 183.969 40.2969C184.125 40.4531 184.297 40.5312 184.484 40.5312C185.391 40.5312 186.266 40.2969 187.109 39.8281C187.984 39.3594 188.797 38.7656 189.547 38.0469C190.297 37.3281 190.969 36.5625 191.562 35.75C192.156 34.9375 192.641 34.1719 193.016 33.4531C193.734 32.1406 194.375 30.8281 194.938 29.5156C195.5 28.1719 196.062 26.8281 196.625 25.4844C196.844 24.9219 197.094 24.2656 197.375 23.5156C197.688 22.7656 197.984 22.125 198.266 21.5938C198.391 21.375 198.594 21.2656 198.875 21.2656C199.094 21.2656 199.281 21.3281 199.438 21.4531C199.594 21.5781 199.672 21.75 199.672 21.9688L199.625 22.0625C199.375 23.1875 199.094 24.3281 198.781 25.4844C198.469 26.6094 198.125 27.7188 197.75 28.8125C197.594 29.25 197.406 29.7344 197.188 30.2656C196.969 30.7969 196.797 31.25 196.672 31.625C196.609 31.8438 196.562 32.0625 196.531 32.2812C196.531 32.5 196.516 32.7188 196.484 32.9375C196.391 33.4375 196.281 33.9375 196.156 34.4375C196.062 34.9062 195.953 35.3906 195.828 35.8906C195.672 36.5156 195.531 37.1562 195.406 37.8125C195.312 38.4375 195.266 39.0781 195.266 39.7344C195.266 39.8906 195.266 40.0312 195.266 40.1562C195.266 40.2812 195.281 40.4062 195.312 40.5312C195.531 40.5312 195.781 40.4375 196.062 40.25C196.375 40.0625 196.688 39.8438 197 39.5938C197.312 39.3125 197.594 39.0312 197.844 38.75C198.125 38.4688 198.344 38.25 198.5 38.0938C199.438 37.0938 200.328 35.9844 201.172 34.7656C201.391 34.5156 201.578 34.25 201.734 33.9688C201.922 33.6562 202.125 33.375 202.344 33.125C202.438 32.9688 202.578 32.8906 202.766 32.8906C202.984 32.8906 203.172 32.9688 203.328 33.125C203.484 33.2812 203.562 33.4688 203.562 33.6875ZM222.406 22.25C222.406 22.5 222.391 22.7344 222.359 22.9531C222.328 23.1719 222.281 23.4062 222.219 23.6562C222.156 23.9062 221.984 24.0312 221.703 24.0312C221.578 24.0312 221.391 23.9844 221.141 23.8906C220.922 23.7656 220.812 23.6406 220.812 23.5156L220.859 23.0938C220.859 22.875 220.828 22.6094 220.766 22.2969C220.734 21.9844 220.656 21.6875 220.531 21.4062C220.438 21.0938 220.297 20.8438 220.109 20.6562C219.922 20.4375 219.672 20.3281 219.359 20.3281C218.609 20.3281 217.812 20.5625 216.969 21.0312C216.125 21.4688 215.406 21.9062 214.812 22.3438C214.562 22.5312 214.219 22.8125 213.781 23.1875C213.344 23.5625 212.891 23.9688 212.422 24.4062C211.953 24.8438 211.516 25.2656 211.109 25.6719C210.734 26.0781 210.469 26.4062 210.312 26.6562C210.219 26.7812 210.094 27.0156 209.938 27.3594C209.812 27.6719 209.672 28.0156 209.516 28.3906C209.391 28.7656 209.25 29.125 209.094 29.4688C208.969 29.8125 208.859 30.0781 208.766 30.2656C208.141 31.7656 207.531 33.2656 206.938 34.7656C206.375 36.2656 205.844 37.7812 205.344 39.3125C205.094 40.0312 204.859 40.7656 204.641 41.5156C204.453 42.2969 204.234 43.0469 203.984 43.7656C203.859 44.0156 203.703 44.1406 203.516 44.1406C203.391 44.1406 203.203 44.0625 202.953 43.9062C202.734 43.7812 202.625 43.6562 202.625 43.5312C202.625 43.1875 202.672 42.7969 202.766 42.3594C202.891 41.9219 202.984 41.5312 203.047 41.1875C203.453 39.1562 203.953 37.1562 204.547 35.1875C205.141 33.2188 205.828 31.2812 206.609 29.375C206.891 28.625 207.219 27.7344 207.594 26.7031C208 25.6719 208.422 24.625 208.859 23.5625C209.297 22.4688 209.75 21.4531 210.219 20.5156C210.719 19.5469 211.219 18.7812 211.719 18.2188C211.844 18.0938 211.984 18.0312 212.141 18.0312C212.266 18.0312 212.438 18.1094 212.656 18.2656C212.906 18.3906 213.031 18.5312 213.031 18.6875C213.031 18.7812 213 18.9531 212.938 19.2031C212.875 19.4219 212.812 19.6719 212.75 19.9531C212.688 20.2031 212.609 20.4531 212.516 20.7031C212.453 20.9219 212.406 21.0781 212.375 21.1719C213.375 20.4219 214.422 19.75 215.516 19.1562C216.609 18.5625 217.812 18.2656 219.125 18.2656C219.688 18.2656 220.172 18.3906 220.578 18.6406C220.984 18.8594 221.328 19.1562 221.609 19.5312C221.891 19.9062 222.094 20.3281 222.219 20.7969C222.344 21.2656 222.406 21.75 222.406 22.25ZM235.766 10.2969C235.766 10.3594 235.75 10.4063 235.719 10.4375C235.719 10.4687 235.719 10.5 235.719 10.5312C234.75 12.6875 233.75 14.8281 232.719 16.9531C231.688 19.0469 230.766 21.2188 229.953 23.4688C230.297 23.4688 230.625 23.4688 230.938 23.4688C231.25 23.4375 231.578 23.4219 231.922 23.4219C232.078 23.4219 232.25 23.4219 232.438 23.4219C232.656 23.3906 232.844 23.4062 233 23.4688C233.188 23.5 233.344 23.5781 233.469 23.7031C233.594 23.7969 233.656 23.9688 233.656 24.2188C233.656 24.5312 233.531 24.7344 233.281 24.8281C233.062 24.8906 232.766 24.9688 232.391 25.0625C232.047 25.125 231.672 25.1875 231.266 25.25C230.891 25.3125 230.516 25.375 230.141 25.4375C229.797 25.4688 229.5 25.5 229.25 25.5312C228.969 26.3438 228.703 27.25 228.453 28.25C228.203 29.2188 227.984 30.2344 227.797 31.2969C227.609 32.3281 227.453 33.3594 227.328 34.3906C227.203 35.3906 227.141 36.3125 227.141 37.1562C227.141 37.375 227.141 37.7188 227.141 38.1875C227.172 38.625 227.219 39.0625 227.281 39.5C227.375 39.9375 227.5 40.3281 227.656 40.6719C227.844 41.0156 228.094 41.1875 228.406 41.1875C228.844 41.1875 229.344 40.9688 229.906 40.5312C230.469 40.0938 231.016 39.5938 231.547 39.0312C232.109 38.4375 232.625 37.8594 233.094 37.2969C233.594 36.7031 234 36.25 234.312 35.9375C234.438 35.8125 234.578 35.75 234.734 35.75C234.922 35.75 235.094 35.8281 235.25 35.9844C235.438 36.1406 235.531 36.3125 235.531 36.5C235.531 36.5938 235.484 36.7031 235.391 36.8281C235.047 37.3281 234.594 37.9531 234.031 38.7031C233.5 39.4219 232.906 40.125 232.25 40.8125C231.625 41.4688 230.953 42.0312 230.234 42.5C229.547 42.9688 228.875 43.2031 228.219 43.2031C227.5 43.2031 226.922 42.9531 226.484 42.4531C226.047 41.9531 225.703 41.3594 225.453 40.6719C225.234 39.9531 225.078 39.2188 224.984 38.4688C224.922 37.6875 224.891 37.0312 224.891 36.5C224.891 35.75 224.938 34.9062 225.031 33.9688C225.156 33.0312 225.297 32.0781 225.453 31.1094C225.609 30.1406 225.797 29.2031 226.016 28.2969C226.234 27.3594 226.438 26.5156 226.625 25.7656C226.375 25.7656 226.125 25.7812 225.875 25.8125C225.656 25.8125 225.422 25.8125 225.172 25.8125C224.516 25.8125 223.844 25.7969 223.156 25.7656C222.469 25.7344 221.797 25.6719 221.141 25.5781C220.484 25.4531 219.844 25.2656 219.219 25.0156C218.594 24.7344 218.031 24.3594 217.531 23.8906C217.406 23.7969 217.344 23.6562 217.344 23.4688C217.344 23.4062 217.438 23.25 217.625 23C217.812 22.7188 217.938 22.5781 218 22.5781C219.156 22.5781 220.297 22.7031 221.422 22.9531C222.547 23.2031 223.688 23.3594 224.844 23.4219C225.219 23.4531 225.594 23.4688 225.969 23.4688C226.375 23.4688 226.781 23.4688 227.188 23.4688H227.328C227.672 22.4062 228.094 21.25 228.594 20C229.094 18.75 229.656 17.5156 230.281 16.2969C230.906 15.0781 231.562 13.9062 232.25 12.7812C232.969 11.625 233.703 10.625 234.453 9.78125C234.641 9.65625 234.797 9.59375 234.922 9.59375C235.109 9.59375 235.297 9.67187 235.484 9.82812C235.672 9.95312 235.766 10.1094 235.766 10.2969Z" fill="black"/>
</svg>
