<svg width="167" height="45" viewBox="0 0 167 45" fill="none" xmlns="http://www.w3.org/2000/svg">
<path d="M29.48 12.92C33.944 15.656 39.752 19.592 42.536 22.184L44.936 19.448C41.96 16.904 36.152 13.112 31.736 10.568L29.48 12.92ZM32.024 20.648H30.2V27.56C30.2 30.344 28.472 38.12 17.288 42.008C17.96 42.728 18.968 44.12 19.352 44.888C27.848 41.816 31.256 35.768 31.976 32.84C32.696 35.72 35.912 42.008 43.304 44.888C43.784 44.072 44.792 42.68 45.464 41.816C35.432 38.12 33.8 30.296 33.8 27.56V20.648H32.024ZM30.488 0.727998C30.056 10.952 28.664 16.712 18.776 19.688C19.544 20.408 20.456 21.704 20.792 22.568C31.64 18.92 33.464 12.248 34.04 0.727998H30.488ZM23.384 3.896C22.952 7.016 21.56 10.184 19.592 11.864L22.376 13.208C24.632 11.24 25.928 7.736 26.408 4.568L23.384 3.896ZM22.904 24.584C22.28 27.992 20.744 31.304 18.392 32.984L21.272 34.712C23.912 32.6 25.448 28.856 26.072 25.208L22.904 24.584ZM40.52 3.656C39.656 6.008 37.88 9.416 36.488 11.48L39.176 12.584C40.616 10.616 42.44 7.592 43.976 4.904L40.52 3.656ZM41.048 24.248C39.992 26.792 38.072 30.44 36.584 32.648L39.32 33.8C40.952 31.688 42.92 28.328 44.552 25.496L41.048 24.248ZM3.08 15.224V18.104H17.144V15.224H3.08ZM3.224 2.408V5.288H16.952V2.408H3.224ZM3.08 21.656V24.536H17.144V21.656H3.08ZM0.824 8.696V11.672H18.728V8.696H0.824ZM4.664 28.136V31.112H13.976V39.128H4.664V42.152H17.144V28.136H4.664ZM3.032 28.136V44.36H6.152V28.136H3.032ZM66.4062 27.9688C66.4062 28.125 66.375 28.25 66.3125 28.3438C66.25 28.4375 66.1875 28.5312 66.125 28.625L66.0781 28.6719C66.1406 28.8594 66.1719 28.9844 66.1719 29.0469C65.9531 29.2344 65.7969 29.4219 65.7031 29.6094C65.6406 29.7656 65.4375 29.8438 65.0938 29.8438C64.7812 29.8438 64.4844 29.7188 64.2031 29.4688C63.9219 29.2188 63.7812 28.9375 63.7812 28.625C63.7812 28.0938 63.8281 27.6562 63.9219 27.3125C64.0469 26.9688 64.4219 26.7969 65.0469 26.7969C65.3594 26.7969 65.6562 26.9062 65.9375 27.125C66.25 27.3438 66.4062 27.625 66.4062 27.9688ZM66.4062 37.5312C66.4062 37.6875 66.375 37.8125 66.3125 37.9062C66.25 38 66.1875 38.0938 66.125 38.1875L66.0781 38.2812C66.1406 38.4062 66.1719 38.5312 66.1719 38.6562C65.9531 38.8125 65.7969 38.9844 65.7031 39.1719C65.6406 39.3281 65.4375 39.4062 65.0938 39.4062C64.7812 39.4062 64.4844 39.2812 64.2031 39.0312C63.9219 38.7812 63.7812 38.5 63.7812 38.1875C63.7812 37.6562 63.8281 37.2344 63.9219 36.9219C64.0469 36.5781 64.4219 36.4062 65.0469 36.4062C65.3594 36.4062 65.6562 36.5156 65.9375 36.7344C66.25 36.9219 66.4062 37.1875 66.4062 37.5312ZM65.4219 29.2344V29.0938C65.3906 29.0938 65.375 29.1094 65.375 29.1406L65.4219 29.2344ZM65.4219 38.8438V38.6562L65.375 38.7031C65.375 38.7344 65.375 38.7656 65.375 38.7969C65.4062 38.7969 65.4219 38.8125 65.4219 38.8438ZM111.923 1.352V25.928H115.907V1.352H111.923ZM114.803 11.96V15.224H122.339V11.96H114.803ZM84.2274 20.168V23.48H87.5874C96.7074 23.48 101.843 23.192 107.795 21.992L107.363 18.728C101.555 19.928 96.5154 20.168 87.5874 20.168H84.2274ZM84.2274 4.232V22.04H88.1634V7.496H103.331V4.232H84.2274ZM88.6434 28.232V44.168H115.907V28.232H88.6434ZM112.019 31.448V40.904H92.5314V31.448H112.019ZM155.744 1.304V44.792H159.776V1.304H155.744ZM158.816 18.44V21.8H166.88V18.44H158.816ZM128.24 30.632V33.992H131.648C139.808 33.992 145.52 33.752 152.192 32.504L151.76 29.144C145.28 30.344 139.664 30.632 131.648 30.632H128.24ZM128.24 5.528V32.12H132.176V8.792H148.4V5.528H128.24Z" fill="black"/>
</svg>
